# xmcd
#
# Track frame offsets: 
#        150
#        11274
#        27864
#        40032
#        58111
#        70324
#        84378
#        97826
#        114051
#        126919
#        137075
#        147797
#        157868
#        175204
#        188454
#        204818
#        218657
#
# Disc length: 3103 seconds
#
# Revision: 0
# Processed by: cddbd v1.5.1PL0 Copyright (c) Steve Scherf et al.
# Submitted via: ExactAudioCopy v0.95a5
#
DISCID=cd0c1d11
DTITLE=Penny and Harry - Country Time
DYEAR=2004
DGENRE=Country
TTITLE0=Wabash Cannonball
TTITLE1=Satin Sheets
TTITLE2=Ring of Fire
TTITLE3=All u ever do is bring me down
TTITLE4=Help me make it through the Night
TTITLE5=Drivin`my Life away
TTITLE6=Guacamole
TTITLE7=Lucille
TTITLE8=Westride Medley
TTITLE9=Honky Tonk Girl
TTITLE10=Cool Water
TTITLE11=Wreck of Old 97
TTITLE12=A little Bit is better than nada
TTITLE13=Achy breaky Heart
TTITLE14=Long black Veil
TTITLE15=These Boots are made for Walking
TTITLE16=Promises
EXTD=
EXTT0=
EXTT1=
EXTT2=
EXTT3=
EXTT4=
EXTT5=
EXTT6=
EXTT7=
EXTT8=
EXTT9=
EXTT10=
EXTT11=
EXTT12=
EXTT13=
EXTT14=
EXTT15=
EXTT16=
PLAYORDER=
